<mxfile host="app.diagrams.net" agent="Mozilla/5.0 (Windows NT 10.0; Win64; x64) AppleWebKit/537.36 (KHTML, like Gecko) Chrome/131.0.0.0 Safari/537.36" version="26.0.5">
  <diagram name="PaginÄƒ-1" id="3Ys6LyE1Z3IjkafROJp_">
    <mxGraphModel dx="2016" dy="1776" grid="1" gridSize="10" guides="1" tooltips="1" connect="1" arrows="1" fold="1" page="1" pageScale="1" pageWidth="827" pageHeight="1169" math="0" shadow="0">
      <root>
        <mxCell id="0" />
        <mxCell id="1" parent="0" />
        <mxCell id="Uz5Xb6NvLUuz-uN-TogT-27" value="tara&amp;nbsp;" style="rounded=0;whiteSpace=wrap;html=1;" vertex="1" parent="1">
          <mxGeometry x="-50" y="-290" width="120" height="60" as="geometry" />
        </mxCell>
        <mxCell id="Uz5Xb6NvLUuz-uN-TogT-28" value="judet&amp;nbsp;" style="rounded=0;whiteSpace=wrap;html=1;" vertex="1" parent="1">
          <mxGeometry x="190" y="-290" width="120" height="60" as="geometry" />
        </mxCell>
        <mxCell id="Uz5Xb6NvLUuz-uN-TogT-29" value="uat" style="rounded=0;whiteSpace=wrap;html=1;" vertex="1" parent="1">
          <mxGeometry x="420" y="-290" width="120" height="60" as="geometry" />
        </mxCell>
        <mxCell id="Uz5Xb6NvLUuz-uN-TogT-30" value="market&amp;nbsp;" style="rounded=0;whiteSpace=wrap;html=1;" vertex="1" parent="1">
          <mxGeometry x="660" y="-290" width="120" height="60" as="geometry" />
        </mxCell>
        <mxCell id="Uz5Xb6NvLUuz-uN-TogT-31" value="clienti" style="rounded=0;whiteSpace=wrap;html=1;" vertex="1" parent="1">
          <mxGeometry x="270" y="-150" width="120" height="60" as="geometry" />
        </mxCell>
        <mxCell id="Uz5Xb6NvLUuz-uN-TogT-33" value="stoc" style="rounded=0;whiteSpace=wrap;html=1;" vertex="1" parent="1">
          <mxGeometry x="1120" y="-180" width="120" height="60" as="geometry" />
        </mxCell>
        <mxCell id="Uz5Xb6NvLUuz-uN-TogT-34" value="produse" style="rounded=0;whiteSpace=wrap;html=1;" vertex="1" parent="1">
          <mxGeometry x="1120" y="-290" width="120" height="60" as="geometry" />
        </mxCell>
        <mxCell id="Uz5Xb6NvLUuz-uN-TogT-35" value="tip_produs" style="rounded=0;whiteSpace=wrap;html=1;" vertex="1" parent="1">
          <mxGeometry x="1330" y="-290" width="120" height="60" as="geometry" />
        </mxCell>
        <mxCell id="Uz5Xb6NvLUuz-uN-TogT-36" value="furnizori" style="rounded=0;whiteSpace=wrap;html=1;" vertex="1" parent="1">
          <mxGeometry x="1120" y="-60" width="120" height="60" as="geometry" />
        </mxCell>
        <mxCell id="Uz5Xb6NvLUuz-uN-TogT-37" value="tip_furnizor" style="rounded=0;whiteSpace=wrap;html=1;" vertex="1" parent="1">
          <mxGeometry x="1380" y="-60" width="120" height="60" as="geometry" />
        </mxCell>
        <mxCell id="Uz5Xb6NvLUuz-uN-TogT-38" value="tip_market" style="rounded=0;whiteSpace=wrap;html=1;" vertex="1" parent="1">
          <mxGeometry x="650" y="-450" width="120" height="60" as="geometry" />
        </mxCell>
        <mxCell id="Uz5Xb6NvLUuz-uN-TogT-40" value="" style="edgeStyle=entityRelationEdgeStyle;fontSize=12;html=1;endArrow=ERoneToMany;rounded=0;exitX=1;exitY=0.5;exitDx=0;exitDy=0;" edge="1" parent="1" source="Uz5Xb6NvLUuz-uN-TogT-27">
          <mxGeometry width="100" height="100" relative="1" as="geometry">
            <mxPoint x="40" y="-270" as="sourcePoint" />
            <mxPoint x="187" y="-260" as="targetPoint" />
          </mxGeometry>
        </mxCell>
        <mxCell id="Uz5Xb6NvLUuz-uN-TogT-41" value="" style="edgeStyle=entityRelationEdgeStyle;fontSize=12;html=1;endArrow=ERoneToMany;rounded=0;entryX=0;entryY=0.5;entryDx=0;entryDy=0;exitX=1;exitY=0.5;exitDx=0;exitDy=0;exitPerimeter=0;" edge="1" parent="1" source="Uz5Xb6NvLUuz-uN-TogT-28" target="Uz5Xb6NvLUuz-uN-TogT-29">
          <mxGeometry width="100" height="100" relative="1" as="geometry">
            <mxPoint x="310" y="-270" as="sourcePoint" />
            <mxPoint x="457" y="-267" as="targetPoint" />
          </mxGeometry>
        </mxCell>
        <mxCell id="Uz5Xb6NvLUuz-uN-TogT-43" value="" style="edgeStyle=entityRelationEdgeStyle;fontSize=12;html=1;endArrow=ERoneToMany;rounded=0;entryX=0;entryY=0.75;entryDx=0;entryDy=0;exitX=1;exitY=0.75;exitDx=0;exitDy=0;" edge="1" parent="1">
          <mxGeometry width="100" height="100" relative="1" as="geometry">
            <mxPoint x="540" y="-256.9999999999998" as="sourcePoint" />
            <mxPoint x="660" y="-256.9999999999998" as="targetPoint" />
          </mxGeometry>
        </mxCell>
        <mxCell id="Uz5Xb6NvLUuz-uN-TogT-44" value="" style="fontSize=12;html=1;endArrow=ERoneToMany;rounded=0;exitX=0.593;exitY=1.043;exitDx=0;exitDy=0;exitPerimeter=0;" edge="1" parent="1" source="Uz5Xb6NvLUuz-uN-TogT-38" target="Uz5Xb6NvLUuz-uN-TogT-30">
          <mxGeometry width="100" height="100" relative="1" as="geometry">
            <mxPoint x="710" y="-293" as="sourcePoint" />
            <mxPoint x="760" y="-310" as="targetPoint" />
          </mxGeometry>
        </mxCell>
        <mxCell id="Uz5Xb6NvLUuz-uN-TogT-46" value="bon" style="rounded=0;whiteSpace=wrap;html=1;" vertex="1" parent="1">
          <mxGeometry x="640" y="-140" width="120" height="60" as="geometry" />
        </mxCell>
        <mxCell id="Uz5Xb6NvLUuz-uN-TogT-48" value="persoana" style="rounded=0;whiteSpace=wrap;html=1;" vertex="1" parent="1">
          <mxGeometry x="20" y="-150" width="120" height="60" as="geometry" />
        </mxCell>
        <mxCell id="Uz5Xb6NvLUuz-uN-TogT-49" value="" style="edgeStyle=entityRelationEdgeStyle;fontSize=12;html=1;endArrow=ERmandOne;startArrow=ERmandOne;rounded=0;entryX=0;entryY=0.5;entryDx=0;entryDy=0;exitX=1;exitY=0.5;exitDx=0;exitDy=0;" edge="1" parent="1">
          <mxGeometry width="100" height="100" relative="1" as="geometry">
            <mxPoint x="140" y="-120.5" as="sourcePoint" />
            <mxPoint x="270" y="-120.5" as="targetPoint" />
            <Array as="points">
              <mxPoint x="250" y="-157.5" />
            </Array>
          </mxGeometry>
        </mxCell>
        <mxCell id="Uz5Xb6NvLUuz-uN-TogT-51" value="clienti_orders" style="rounded=0;whiteSpace=wrap;html=1;" vertex="1" parent="1">
          <mxGeometry x="460" y="-90" width="120" height="60" as="geometry" />
        </mxCell>
        <mxCell id="Uz5Xb6NvLUuz-uN-TogT-52" value="" style="fontSize=12;html=1;endArrow=ERoneToMany;rounded=0;entryX=-0.022;entryY=0.377;entryDx=0;entryDy=0;entryPerimeter=0;" edge="1" parent="1" target="Uz5Xb6NvLUuz-uN-TogT-51">
          <mxGeometry width="100" height="100" relative="1" as="geometry">
            <mxPoint x="390" y="-120" as="sourcePoint" />
            <mxPoint x="490" y="-220" as="targetPoint" />
          </mxGeometry>
        </mxCell>
        <mxCell id="Uz5Xb6NvLUuz-uN-TogT-53" value="" style="fontSize=12;html=1;endArrow=ERoneToMany;rounded=0;entryX=1;entryY=0.5;entryDx=0;entryDy=0;exitX=0;exitY=0.5;exitDx=0;exitDy=0;" edge="1" parent="1" source="Uz5Xb6NvLUuz-uN-TogT-46" target="Uz5Xb6NvLUuz-uN-TogT-51">
          <mxGeometry width="100" height="100" relative="1" as="geometry">
            <mxPoint x="690" y="-20" as="sourcePoint" />
            <mxPoint x="777" y="53" as="targetPoint" />
          </mxGeometry>
        </mxCell>
        <mxCell id="Uz5Xb6NvLUuz-uN-TogT-54" value="" style="fontSize=12;html=1;endArrow=ERoneToMany;rounded=0;entryX=0.5;entryY=0;entryDx=0;entryDy=0;" edge="1" parent="1" target="Uz5Xb6NvLUuz-uN-TogT-33">
          <mxGeometry width="100" height="100" relative="1" as="geometry">
            <mxPoint x="1180" y="-229" as="sourcePoint" />
            <mxPoint x="1185" y="-180" as="targetPoint" />
          </mxGeometry>
        </mxCell>
        <mxCell id="Uz5Xb6NvLUuz-uN-TogT-55" value="" style="fontSize=12;html=1;endArrow=ERoneToMany;rounded=0;entryX=1;entryY=0.5;entryDx=0;entryDy=0;" edge="1" parent="1" target="Uz5Xb6NvLUuz-uN-TogT-34">
          <mxGeometry width="100" height="100" relative="1" as="geometry">
            <mxPoint x="1328" y="-260.5" as="sourcePoint" />
            <mxPoint x="1270" y="-260.5" as="targetPoint" />
          </mxGeometry>
        </mxCell>
        <mxCell id="Uz5Xb6NvLUuz-uN-TogT-56" value="" style="fontSize=12;html=1;endArrow=ERoneToMany;rounded=0;exitX=0;exitY=0.5;exitDx=0;exitDy=0;entryX=1;entryY=0.5;entryDx=0;entryDy=0;" edge="1" parent="1" source="Uz5Xb6NvLUuz-uN-TogT-37" target="Uz5Xb6NvLUuz-uN-TogT-36">
          <mxGeometry width="100" height="100" relative="1" as="geometry">
            <mxPoint x="1300" as="sourcePoint" />
            <mxPoint x="1260" y="100" as="targetPoint" />
          </mxGeometry>
        </mxCell>
        <mxCell id="Uz5Xb6NvLUuz-uN-TogT-57" value="" style="fontSize=12;html=1;endArrow=ERoneToMany;rounded=0;entryX=0.435;entryY=1.07;entryDx=0;entryDy=0;exitX=0.422;exitY=0.07;exitDx=0;exitDy=0;exitPerimeter=0;entryPerimeter=0;" edge="1" parent="1" source="Uz5Xb6NvLUuz-uN-TogT-36" target="Uz5Xb6NvLUuz-uN-TogT-33">
          <mxGeometry width="100" height="100" relative="1" as="geometry">
            <mxPoint x="1260" y="-10" as="sourcePoint" />
            <mxPoint x="1160" y="-120" as="targetPoint" />
          </mxGeometry>
        </mxCell>
        <mxCell id="Uz5Xb6NvLUuz-uN-TogT-61" value="market_produse" style="whiteSpace=wrap;html=1;" vertex="1" parent="1">
          <mxGeometry x="890" y="-290" width="120" height="60" as="geometry" />
        </mxCell>
        <mxCell id="Uz5Xb6NvLUuz-uN-TogT-62" value="" style="edgeStyle=entityRelationEdgeStyle;fontSize=12;html=1;endArrow=ERoneToMany;rounded=0;entryX=0;entryY=0.75;entryDx=0;entryDy=0;" edge="1" parent="1">
          <mxGeometry width="100" height="100" relative="1" as="geometry">
            <mxPoint x="780" y="-260.71" as="sourcePoint" />
            <mxPoint x="890" y="-260.41999999999996" as="targetPoint" />
          </mxGeometry>
        </mxCell>
        <mxCell id="Uz5Xb6NvLUuz-uN-TogT-64" value="" style="edgeStyle=entityRelationEdgeStyle;fontSize=12;html=1;endArrow=ERoneToMany;rounded=0;exitX=0;exitY=0.5;exitDx=0;exitDy=0;entryX=1;entryY=0.5;entryDx=0;entryDy=0;" edge="1" parent="1" source="Uz5Xb6NvLUuz-uN-TogT-34" target="Uz5Xb6NvLUuz-uN-TogT-61">
          <mxGeometry width="100" height="100" relative="1" as="geometry">
            <mxPoint x="980" y="-170" as="sourcePoint" />
            <mxPoint x="1000" y="-70" as="targetPoint" />
          </mxGeometry>
        </mxCell>
        <mxCell id="Uz5Xb6NvLUuz-uN-TogT-66" value="produse_bon" style="whiteSpace=wrap;html=1;" vertex="1" parent="1">
          <mxGeometry x="870" y="-140" width="120" height="60" as="geometry" />
        </mxCell>
        <mxCell id="Uz5Xb6NvLUuz-uN-TogT-67" value="" style="fontSize=12;html=1;endArrow=ERoneToMany;rounded=0;exitX=0.383;exitY=1.024;exitDx=0;exitDy=0;exitPerimeter=0;entryX=0.5;entryY=0;entryDx=0;entryDy=0;" edge="1" parent="1" source="Uz5Xb6NvLUuz-uN-TogT-61" target="Uz5Xb6NvLUuz-uN-TogT-66">
          <mxGeometry width="100" height="100" relative="1" as="geometry">
            <mxPoint x="930" y="-226" as="sourcePoint" />
            <mxPoint x="908" y="-150" as="targetPoint" />
          </mxGeometry>
        </mxCell>
        <mxCell id="Uz5Xb6NvLUuz-uN-TogT-68" value="" style="fontSize=12;html=1;endArrow=ERoneToMany;rounded=0;entryX=0;entryY=0.5;entryDx=0;entryDy=0;exitX=1;exitY=0.5;exitDx=0;exitDy=0;" edge="1" parent="1" source="Uz5Xb6NvLUuz-uN-TogT-46" target="Uz5Xb6NvLUuz-uN-TogT-66">
          <mxGeometry width="100" height="100" relative="1" as="geometry">
            <mxPoint x="780" y="-100" as="sourcePoint" />
            <mxPoint x="847" y="-47" as="targetPoint" />
          </mxGeometry>
        </mxCell>
      </root>
    </mxGraphModel>
  </diagram>
</mxfile>
